<svg width="100%" height="100%" viewBox="0 0 137 52" fill="none" xmlns="http://www.w3.org/2000/svg">
<path fill-rule="evenodd" clip-rule="evenodd" d="M34.8933 2.84887C32.551 1.31423 6.72823 2.63671 5.89296 4.26845C5.30301 5.42093 5.43526 11.0093 5.56385 14.1926C5.61354 15.4228 6.66858 16.3543 7.89714 16.2725C10.9422 16.0697 16.505 15.716 20.6965 15.5457C16.978 22.6734 10.1619 32.3278 0.644981 39.5396C0.0406085 39.9976 -0.188939 40.7021 0.172678 41.3738C1.63901 44.0972 5.91988 50.7892 8.17426 51.6088C10.9121 52.604 34.8472 23.8579 35.96 12.508C36.0065 12.0336 36.0279 11.5816 36.0262 11.1515C36.2802 8.02485 36.3318 3.79138 34.8933 2.84887Z" fill="url(#paint0_linear_1426_3246)"/>
<path fill-rule="evenodd" clip-rule="evenodd" d="M38.1887 33.447C38.1887 34.6677 39.1782 35.6572 40.3989 35.6572H46.4447C47.6653 35.6572 48.6548 34.6677 48.6548 33.447V23.071H52.0113C53.2319 23.071 54.2214 22.0815 54.2214 20.8608V14.7179C54.2214 13.4972 53.2319 12.5077 52.0113 12.5077H48.6548V3.25558C48.6548 2.03494 47.6653 1.04541 46.4447 1.04541H40.3989C39.1782 1.04541 38.1887 2.03494 38.1887 3.25558V33.447Z" fill="url(#paint1_linear_1426_3246)"/>
<path fill-rule="evenodd" clip-rule="evenodd" d="M69.803 18.8013C68.5823 18.8013 67.5928 19.7908 67.5928 21.0114V25.0942H58.6696C57.449 25.0942 56.4595 26.0838 56.4595 27.3044V33.4474C56.4595 34.668 57.449 35.6576 58.6696 35.6576H88.3199C89.5405 35.6576 90.53 34.668 90.53 33.4474V27.3044C90.53 26.0838 89.5405 25.0942 88.3199 25.0942H79.1723V21.0114C79.1723 19.7908 78.1828 18.8013 76.9621 18.8013H69.803Z" fill="url(#paint2_linear_1426_3246)"/>
<path fill-rule="evenodd" clip-rule="evenodd" d="M93.8701 4.01697C93.8701 2.89848 94.6938 1.95932 95.8062 1.843C101.717 1.22497 119.251 -0.33681 121.303 2.63991C122.159 3.88277 122.564 5.31397 122.726 6.65384C123.299 9.12448 121.607 20.3312 121.483 20.4126C121.473 20.4186 121.41 20.4115 121.3 20.3933C120.929 21.0853 120.2 21.5569 119.36 21.5604L106.126 21.6156C106.087 22.6048 106.062 23.6456 106.067 24.6243L118.276 24.0383C119.181 23.9949 120.021 24.5059 120.333 25.3558C121.074 27.3729 122.119 30.9917 120.584 32.0958C118.418 33.6544 100.4 35.8823 96.8372 33.6347C95.6925 32.9126 95.1239 31.7779 94.8793 30.5701L94.8764 30.5685C94.3899 30.2806 93.9718 21.7794 93.9292 19.1986C93.7618 17.8539 93.8961 16.1782 95.056 14.7551C96.4218 13.0793 104.941 12.8149 111.958 12.8942C112 12.3506 112.028 11.8001 112.035 11.2614L96.0543 11.0737C94.8439 11.0595 93.8701 10.0742 93.8701 8.86368V4.01697Z" fill="url(#paint3_linear_1426_3246)"/>
<path d="M125 35.1735C124.338 34.5056 125.202 9.60989 125.477 2.11401C125.521 0.927563 126.496 -0.000137329 127.683 -0.000137329H133.813C135.033 -0.000137329 136.023 0.989391 136.023 2.21004V32.6734C136.023 33.7825 135.203 34.7189 134.101 34.846C131.095 35.1928 125.565 35.7434 125 35.1735Z" fill="url(#paint4_linear_1426_3246)"/>
<path fill-rule="evenodd" clip-rule="evenodd" d="M73.1514 22.1106C81.5673 22.1106 88.7469 15.8695 88.7469 10.4124C88.7469 4.95523 83.5912 0.87207 75.1752 0.87207C64.3417 0.190627 57.7939 6.4317 57.7939 11.8888C57.7939 17.346 64.7355 22.1106 73.1514 22.1106ZM74.3216 12.5699C75.6811 12.5699 76.8408 11.904 76.8408 11.3218C76.8408 10.7395 76.008 10.3039 74.6485 10.3039C72.8985 10.2312 71.8408 10.8971 71.8408 11.4793C71.8408 12.0616 72.9621 12.5699 74.3216 12.5699Z" fill="url(#paint5_linear_1426_3246)"/>
<defs>
<linearGradient id="paint0_linear_1426_3246" x1="18.0829" y1="2.16943" x2="18.0829" y2="51.634" gradientUnits="userSpaceOnUse">
<stop stop-color="#FF3F9B"/>
<stop offset="1" stop-color="#FF67B0"/>
</linearGradient>
<linearGradient id="paint1_linear_1426_3246" x1="46.2052" y1="1.04541" x2="46.2052" y2="35.6572" gradientUnits="userSpaceOnUse">
<stop stop-color="#FF3F9B"/>
<stop offset="1" stop-color="#FF67B0"/>
</linearGradient>
<linearGradient id="paint2_linear_1426_3246" x1="73.4948" y1="18.8013" x2="73.4948" y2="35.6577" gradientUnits="userSpaceOnUse">
<stop stop-color="#FF3F9B"/>
<stop offset="1" stop-color="#FF67B0"/>
</linearGradient>
<linearGradient id="paint3_linear_1426_3246" x1="108.357" y1="0.878906" x2="108.357" y2="34.5882" gradientUnits="userSpaceOnUse">
<stop stop-color="#FF3F9B"/>
<stop offset="1" stop-color="#FF67B0"/>
</linearGradient>
<linearGradient id="paint4_linear_1426_3246" x1="124.756" y1="17.7099" x2="136.023" y2="17.7099" gradientUnits="userSpaceOnUse">
<stop stop-color="#FF3F9B"/>
<stop offset="1" stop-color="#FF67B0"/>
</linearGradient>
<linearGradient id="paint5_linear_1426_3246" x1="73.2704" y1="0.820801" x2="73.2704" y2="22.1106" gradientUnits="userSpaceOnUse">
<stop stop-color="#FF3F9B"/>
<stop offset="1" stop-color="#FF67B0"/>
</linearGradient>
</defs>
</svg>
